<svg width="338" height="85" fill="none" xmlns="http://www.w3.org/2000/svg">
    <!-- <text fill="#E0E0E0" x="128" y="52" font-family="Inter" font-weight="bold">
        MASSAGE THERAPY
    </text> -->
    <path id="text" fill="#E0E0E0"
        d="M131.264 39.455h3.793l4.005 9.772h.171l4.006-9.772h3.792V54h-2.983v-9.467h-.12l-3.765 9.396h-2.031l-3.764-9.432h-.121V54h-2.983V39.455zM152.072 54h-3.295l5.021-14.545h3.963L162.775 54h-3.295l-3.644-11.222h-.113L152.072 54zm-.206-5.717h7.784v2.4h-7.784v-2.4zm20.219-4.645c-.057-.573-.301-1.018-.732-1.335-.431-.318-1.016-.476-1.754-.476-.502 0-.926.07-1.272.213-.345.137-.61.329-.795.575-.18.246-.27.526-.27.838-.009.26.045.488.163.682.124.194.292.362.505.504.213.137.459.258.738.362.28.1.578.185.895.256l1.307.313a9.212 9.212 0 011.747.568c.53.236.99.528 1.378.873.388.346.689.753.902 1.222.218.469.329 1.006.334 1.612-.005.89-.232 1.662-.682 2.316-.445.648-1.089 1.152-1.932 1.512-.838.355-1.849.533-3.032.533-1.175 0-2.197-.18-3.069-.54-.866-.36-1.543-.892-2.031-1.598-.483-.71-.736-1.588-.76-2.635h2.976c.033.488.173.895.419 1.222.251.322.585.566 1.001.731.422.161.898.242 1.428.242.521 0 .973-.076 1.357-.227.388-.152.688-.363.902-.633.213-.27.319-.58.319-.93a1.21 1.21 0 00-.291-.824c-.189-.222-.469-.412-.838-.568a8.543 8.543 0 00-1.342-.426l-1.584-.398c-1.227-.298-2.195-.764-2.905-1.399-.71-.634-1.063-1.49-1.058-2.564-.005-.88.229-1.65.703-2.308.478-.658 1.134-1.172 1.967-1.541.833-.37 1.78-.554 2.841-.554 1.08 0 2.022.184 2.827.554.809.369 1.439.883 1.889 1.54.45.659.682 1.421.696 2.288h-2.947zm13.105 0c-.057-.573-.301-1.018-.732-1.335-.43-.318-1.015-.476-1.754-.476-.502 0-.925.07-1.271.213-.346.137-.611.329-.796.575a1.39 1.39 0 00-.269.838c-.01.26.045.488.163.682.123.194.291.362.504.504.213.137.459.258.739.362.279.1.577.185.895.256l1.306.313a9.223 9.223 0 011.748.568 5.3 5.3 0 011.377.873c.389.346.689.753.902 1.222.218.469.33 1.006.334 1.612-.004.89-.232 1.662-.682 2.316-.445.648-1.089 1.152-1.931 1.512-.838.355-1.849.533-3.033.533-1.174 0-2.197-.18-3.068-.54-.867-.36-1.544-.892-2.031-1.598-.483-.71-.737-1.588-.76-2.635h2.975c.034.488.173.895.419 1.222a2.33 2.33 0 001.002.731c.421.161.897.242 1.427.242.521 0 .973-.076 1.357-.227.388-.152.689-.363.902-.633.213-.27.32-.58.32-.93 0-.327-.097-.601-.292-.824-.189-.222-.468-.412-.838-.568a8.509 8.509 0 00-1.342-.426l-1.584-.398c-1.226-.298-2.194-.764-2.905-1.399-.71-.634-1.063-1.49-1.058-2.564-.005-.88.23-1.65.703-2.308.478-.658 1.134-1.172 1.968-1.541.833-.37 1.78-.554 2.84-.554 1.08 0 2.022.184 2.827.554.81.369 1.44.883 1.889 1.54.45.659.682 1.421.696 2.288h-2.947zM192.58 54h-3.296l5.022-14.545h3.963L203.283 54h-3.295l-3.644-11.222h-.114L192.58 54zm-.206-5.717h7.784v2.4h-7.784v-2.4zm21.621-4.127a3.175 3.175 0 00-.419-.916c-.18-.27-.4-.497-.661-.682a2.825 2.825 0 00-.88-.433c-.327-.1-.689-.15-1.087-.15-.743 0-1.397.185-1.96.555-.559.37-.994.907-1.307 1.612-.312.7-.469 1.558-.469 2.571 0 1.013.154 1.875.462 2.585.308.71.743 1.253 1.307 1.627.563.369 1.229.554 1.996.554.696 0 1.29-.123 1.782-.37a2.653 2.653 0 001.137-1.058c.265-.454.397-.992.397-1.612l.625.092h-3.75v-2.315h6.087v1.832c0 1.279-.27 2.377-.81 3.296a5.513 5.513 0 01-2.23 2.116c-.947.493-2.031.739-3.253.739-1.363 0-2.561-.3-3.593-.902-1.033-.606-1.838-1.466-2.415-2.578-.573-1.118-.86-2.443-.86-3.977 0-1.18.171-2.23.512-3.154.345-.928.828-1.714 1.449-2.358a6.257 6.257 0 012.166-1.47 7.019 7.019 0 012.677-.504c.824 0 1.591.12 2.302.362.71.237 1.34.573 1.889 1.008a5.453 5.453 0 011.356 1.556c.351.596.576 1.255.675 1.974h-3.125zm5.57 9.844V39.455h9.801v2.535h-6.726v3.466h6.222v2.535h-6.222v3.474h6.755V54h-9.83zm16.321-12.01v-2.535h11.946v2.535h-4.453V54h-3.04V41.99h-4.453zM249.799 54V39.455h3.076v6.001h6.243v-6.002h3.068V54h-3.068v-6.008h-6.243V54h-3.076zm14.922 0V39.455h9.801v2.535h-6.725v3.466h6.221v2.535h-6.221v3.474h6.754V54h-9.83zm12.246 0V39.455h5.739c1.098 0 2.036.196 2.812.589.782.388 1.376.94 1.783 1.655.412.71.618 1.546.618 2.507 0 .966-.208 1.797-.625 2.493-.417.691-1.02 1.221-1.811 1.59-.786.37-1.738.555-2.855.555h-3.842v-2.472h3.345c.587 0 1.074-.08 1.463-.241.388-.161.677-.403.866-.725.194-.322.291-.722.291-1.2 0-.483-.097-.89-.291-1.222-.189-.331-.48-.582-.873-.753-.389-.175-.879-.262-1.471-.262h-2.073V54h-3.076zm7.855-6.62l3.616 6.62h-3.395l-3.537-6.62h3.316zm7.777 6.62h-3.295l5.021-14.545h3.963L303.303 54h-3.296l-3.643-11.222h-.114L292.599 54zm-.206-5.717h7.785v2.4h-7.785v-2.4zM305.053 54V39.455h5.739c1.103 0 2.043.21 2.82.632a4.281 4.281 0 011.775 1.74c.412.738.618 1.59.618 2.556s-.208 1.819-.625 2.557c-.417.739-1.02 1.314-1.811 1.726-.786.412-1.738.618-2.855.618h-3.658V46.82h3.161c.591 0 1.079-.102 1.463-.306.388-.208.677-.495.866-.86.194-.369.291-.792.291-1.27 0-.483-.097-.905-.291-1.265a1.943 1.943 0 00-.866-.845c-.389-.203-.881-.305-1.478-.305h-2.073V54h-3.076zm12.097-14.545h3.445l3.317 6.264h.142l3.316-6.264h3.445l-5.305 9.403V54h-3.054v-5.142l-5.306-9.403z"
    />
    <path id="logo" fill-rule="evenodd" clip-rule="evenodd" fill="url(#prefix__paint0_linear_36_609)"
        d="M58 69.425a1.36 1.36 0 01-.863-.309 1.346 1.346 0 01-.21.058l-2.298-3.297a46.933 46.933 0 01-.396-.58l.003.002c-5.751-8.53-8.878-19.219-8.878-30.586 0-13.047 4.118-25.2 11.595-34.221a1.36 1.36 0 012.093 0c7.478 9.02 11.596 21.174 11.596 34.22 0 11.368-3.127 22.057-8.88 30.588l-.005.009-.059.087c-.11.161-.22.323-.331.483l-2.296 3.295a1.35 1.35 0 01-.209-.058 1.358 1.358 0 01-.862.31zm49.135 14.99c-9.275 0-18.75-1.337-27.4-3.866-7.112-2.078-13.242-4.876-17.804-8.085l.134.004-.368-.192 3.978-.098c7.667-.189 15.2-2.042 22.166-5.186 1.331.325 2.645.677 3.939 1.055 11.309 3.306 19.818 8.239 23.958 13.89a1.36 1.36 0 01-.98 2.158c-2.463.212-5.028.32-7.623.32zM64.311 67.069l-.722.376.009-.012.25-.364.007-.01.13-.191.013-.02.006-.01.013-.018c6.338-9.395 9.344-20.787 9.344-32.107 0-4.153-.405-8.315-1.23-12.385 5.584-6.02 12.29-10.636 19.37-13.261a1.359 1.359 0 011.814 1.046c1.965 11.552-.546 24.135-7.069 35.434-5.468 9.47-13.128 16.95-21.935 21.522zM8.865 84.415a89.29 89.29 0 01-7.622-.32 1.359 1.359 0 01-.98-2.157c4.14-5.652 12.649-10.586 23.958-13.891a90.64 90.64 0 013.94-1.055c6.966 3.144 14.498 4.996 22.165 5.186l3.978.098-.368.191.135-.003c-4.562 3.208-10.693 6.007-17.804 8.085-8.651 2.529-18.126 3.866-27.402 3.866zM52.398 67.43l.009.012-.733-.381c-8.8-4.573-16.455-12.05-21.92-21.516-6.524-11.298-9.034-23.882-7.069-35.433a1.36 1.36 0 011.813-1.046c7.08 2.625 13.787 7.241 19.37 13.26a62.463 62.463 0 00-1.229 12.385c0 11.318 3.002 22.713 9.34 32.106l.007.01.007.01.013.019.135.198c.085.126.17.251.258.376zm41.89-33.635c4.275-1.086 8.576-1.635 12.847-1.635 2.633 0 5.235.216 7.734.641a1.359 1.359 0 011.047 1.813c-4.074 10.986-12.54 20.629-23.838 27.152-8.355 4.823-17.48 7.471-26.47 7.693 9.69-5.042 17.553-13.131 22.993-22.554a62.07 62.07 0 005.687-13.11zM50.393 69.46c-8.991-.222-18.117-2.87-26.47-7.693C12.625 55.244 4.159 45.601.085 34.615a1.36 1.36 0 011.046-1.813c2.5-.425 5.101-.64 7.734-.64 4.272 0 8.573.548 12.847 1.634a62.056 62.056 0 005.687 13.11c5.44 9.422 13.304 17.512 22.994 22.554z"

    />
    <defs id="colours">
        <linearGradient id="prefix__paint0_linear_36_609" x1="33.606" y1="42.208" x2="82.398" y2="42.208"
            gradientUnits="userSpaceOnUse">
            <stop stop-color="#BF00FF" />
            <stop offset=".541" stop-color="#8300FF" />
            <stop offset="1" stop-color="#6E00FF" />
        </linearGradient>
    </defs>
</svg>
