<svg id="lotus-flower" width="683" height="683" clip-rule="evenodd" fill-rule="evenodd"
    image-rendering="optimizeQuality" shape-rendering="geometricPrecision" text-rendering="geometricPrecision"
    version="1.1" viewBox="0 0 180.62 180.62" xmlns="http://www.w3.org/2000/svg">
    <path fill="url(#a)" fill-rule="evenodd" id="logo"
        d="m90.311 132.69c-0.494 0-0.9678-0.1726-1.3434-0.481-0.1052 0.0385-0.2143 0.0689-0.3267 0.0905l-0.7052-1.0119-0.0122-0.0175-2.861-4.1053c-0.2082-0.2988-0.4132-0.5995-0.6167-0.9011l0.0034 0.0016c-8.9542-13.282-13.823-29.925-13.823-47.625 0-20.314 6.412-39.237 18.055-53.284 0.4021-0.4851 0.9994-0.7659 1.6294-0.7659s1.2273 0.2808 1.6294 0.7659c11.643 14.046 18.055 32.969 18.055 53.284 0 17.7-4.8693 34.344-13.825 47.626l-0.0095 0.0142-0.0915 0.1353c-0.1705 0.2518-0.3422 0.5028-0.5161 0.7524l-3.5743 5.1311c-0.1119-0.0216-0.2206-0.052-0.3254-0.0904-0.3752 0.3083-0.849 0.4808-1.3428 0.4808zm76.507 23.34h-7e-4c-14.442-4e-4 -29.195-2.081-42.665-6.0187-11.072-3.2359-20.618-7.5935-27.72-12.589l0.2083 0.0051-0.5732-0.2982 6.1935-0.1527c11.938-0.2943 23.667-3.1794 34.514-8.0746 2.0734 0.5061 4.1193 1.0538 6.1329 1.6424 17.61 5.147 30.859 12.828 37.305 21.628 0.4516 0.6171 0.5359 1.4302 0.2195 2.1261-0.3164 0.696-0.9836 1.168-1.7456 1.2334-3.8344 0.3302-7.828 0.4978-11.868 0.4978zm-66.68-27.008-1.124 0.5848 0.0133-0.0191c0.1309-0.1879 0.2605-0.3767 0.3896-0.5657l0.0102-0.0149 4e-4 -7e-4 0.2025-0.2984 0.0202-0.03 0.0101-0.0149 0.0202-0.03c9.8679-14.628 14.548-32.366 14.548-49.993 0-6.4655-0.6302-12.946-1.914-19.283 8.6937-9.3732 19.137-16.562 30.161-20.649 0.5912-0.2195 1.2485-0.1637 1.7943 0.1513 0.5457 0.3151 0.9225 0.857 1.0284 1.4781 3.0595 17.986-0.8488 37.58-11.006 55.172-8.5145 14.747-20.443 26.394-34.155 33.513zm-86.333 27.008c-4.0411 0-8.0341-0.1676-11.869-0.4977-0.762-0.0656-1.4294-0.5369-1.7456-1.2333-0.3161-0.6964-0.2325-1.5092 0.2198-2.1261 6.4459-8.8003 19.695-16.482 37.305-21.629 2.0137-0.5885 4.0597-1.1363 6.1332-1.6423 10.847 4.895 22.576 7.7798 34.514 8.0743l6.1936 0.1528-0.5725 0.2979 0.2094-0.0052c-7.1028 4.9961-16.649 9.3541-27.722 12.59-13.47 3.9369-28.224 6.0179-42.666 6.0179zm67.784-26.445 0.0132 0.019-1.1414-0.5939c-13.702-7.1197-25.622-18.762-34.132-33.501-10.157-17.592-14.065-37.187-11.005-55.172 0.1058-0.6212 0.4826-1.163 1.0284-1.4781 0.5453-0.3151 1.2033-0.3704 1.7942-0.1513 11.024 4.0877 21.467 11.276 30.161 20.648-1.2839 6.3375-1.9143 12.819-1.9143 19.284 0 17.623 4.6742 35.365 14.544 49.991l0.0101 0.015 0.0101 0.0149 0.0202 0.03 0.0101 0.0149 0.2 0.2948c0.1331 0.1953 0.2671 0.3901 0.4023 0.5841zm65.225-52.372c6.6557-1.6914 13.353-2.5453 20.004-2.5453 4.0989 0 8.1505 0.3355 12.042 0.9976 0.6216 0.1059 1.1631 0.4827 1.4781 1.0284 0.3151 0.5457 0.3708 1.2033 0.1518 1.7942-6.3433 17.106-19.525 32.121-37.118 42.278-13.008 7.5101-27.216 11.633-41.216 11.978 15.088-7.8499 27.332-20.446 35.803-35.118 3.7099-6.4256 6.7132-13.296 8.8554-20.413zm-68.348 55.531c-14-0.3454-28.209-4.4686-41.216-11.978-17.592-10.157-30.774-25.171-37.117-42.278-0.2191-0.591-0.1638-1.2486 0.1513-1.7943s0.8569-0.9225 1.4781-1.0284c3.8912-0.6618 7.9427-0.9976 12.042-0.9976 6.651 0 13.348 0.854 20.004 2.5456 2.1419 7.1163 5.1449 13.987 8.8548 20.412 8.471 14.672 20.715 27.268 35.803 35.118z"
    />
    <defs id="colours">
        <linearGradient id="a" x1="52.328" x2="128.3" y1="90.311" y2="90.311" gradientUnits="userSpaceOnUse">
            <stop stop-color="#bf00ff" offset="0" />
            <stop stop-color="#8300ff" offset=".541" />
            <stop stop-color="#6e00ff" offset="1" />
        </linearGradient>
    </defs>
</svg>
